<svg xmlns="http://www.w3.org/2000/svg" xmlns:xlink="http://www.w3.org/1999/xlink" viewBox="0 0 174.92 220.55"><defs><style>.cls-1,.cls-15,.cls-19,.cls-21,.cls-6,.cls-9{fill:none;}.cls-2{fill:#666;}.cls-10,.cls-11,.cls-13,.cls-2,.cls-22,.cls-3,.cls-5,.cls-6,.cls-7,.cls-9{stroke:#292929;}.cls-10,.cls-11,.cls-12,.cls-13,.cls-15,.cls-16,.cls-17,.cls-19,.cls-2,.cls-20,.cls-21,.cls-3,.cls-5,.cls-6,.cls-7,.cls-8,.cls-9{stroke-miterlimit:10;}.cls-10,.cls-11,.cls-12,.cls-13,.cls-15,.cls-2,.cls-22,.cls-3,.cls-5,.cls-6,.cls-7,.cls-8,.cls-9{stroke-width:4px;}.cls-3{fill:#999;}.cls-4{fill:#4d4d4d;}.cls-5{fill:#b3b3b3;}.cls-10,.cls-15,.cls-19,.cls-20,.cls-22,.cls-6{stroke-linecap:round;}.cls-7{fill:#29abe2;}.cls-11,.cls-16,.cls-20,.cls-8{fill:#fff;}.cls-19,.cls-20,.cls-8{stroke:#fff;}.cls-8{opacity:0.75;}.cls-10,.cls-13,.cls-22{fill:#e6e6e6;}.cls-12,.cls-16,.cls-17,.cls-21{stroke:#000;}.cls-12{opacity:0.1;}.cls-14{clip-path:url(#clip-path);}.cls-15{stroke:gray;}.cls-16,.cls-19,.cls-21{stroke-width:1.5px;}.cls-17{fill:#fdb314;}.cls-18{fill:#ef9828;}.cls-22{stroke-linejoin:round;}</style><clipPath id="clip-path"><rect class="cls-1" x="70.92" y="47.28" width="69" height="47" transform="translate(25.62 -27.99) rotate(17.19)"/></clipPath></defs><g id="Layer_2" data-name="Layer 2"><g id="Layer_1-2" data-name="Layer 1"><g id="Stove"><path class="cls-2" d="M87.8,65.05V58.26A2.21,2.21,0,0,1,90,56.05h42.2a2.21,2.21,0,0,1,2.21,2.21v6.79"/><path class="cls-2" d="M15.8,65.05V58.26A2.21,2.21,0,0,1,18,56.05h42.2a2.21,2.21,0,0,1,2.21,2.21v6.79"/><path class="cls-3" d="M125.64,200.18V216a2.2,2.2,0,0,0,2.2,2.2h8.46a2.2,2.2,0,0,0,2.21-2.2v-15.8"/><path class="cls-3" d="M12.42,200.55v15.8a2.2,2.2,0,0,0,2.21,2.2h8.45a2.2,2.2,0,0,0,2.21-2.2v-15.8"/><rect class="cls-4" x="126.92" y="198.28" width="10" height="7"/><rect class="cls-4" x="13.92" y="198.28" width="10" height="7"/><path class="cls-5" d="M144.71,200.05H6.13a2.2,2.2,0,0,1-2.21-2.2V67.26a2.21,2.21,0,0,1,2.21-2.21H144.71a2.21,2.21,0,0,1,2.21,2.21V197.85A2.2,2.2,0,0,1,144.71,200.05Z"/><path class="cls-6" d="M27.92,79.05s-7-1-7,6c0,6.39,5.83,5.65,6.85,5.47a2.19,2.19,0,0,1,.36,0h95.1c.85-.09,6.4-.89,6.54-6.43.15-6-6.26-5-6.26-5"/><rect class="cls-7" x="25.29" y="103.01" width="100.35" height="72.59" rx="2.21"/><line class="cls-8" x1="102.14" y1="175.15" x2="125.38" y2="143.28"/><line class="cls-8" x1="113.72" y1="175.6" x2="125.64" y2="159.36"/><rect class="cls-9" x="25.29" y="103.01" width="100.35" height="72.59" rx="2.21"/><line class="cls-10" x1="40.13" y1="158.77" x2="110.4" y2="158.77"/><line class="cls-10" x1="40.13" y1="139.77" x2="110.4" y2="139.77"/><line class="cls-10" x1="40.13" y1="120.77" x2="110.4" y2="120.77"/><rect class="cls-11" x="80.46" y="84.05" width="33.26" height="44.98" rx="2.21"/><path class="cls-9" d="M125.64,200.18V216a2.2,2.2,0,0,0,2.2,2.2h8.46a2.2,2.2,0,0,0,2.21-2.2v-15.8"/><path class="cls-9" d="M12.42,200.55v15.8a2.2,2.2,0,0,0,2.21,2.2h8.45a2.2,2.2,0,0,0,2.21-2.2v-15.8"/><rect class="cls-12" x="83.46" y="86.05" width="33.26" height="44.98" rx="2.21"/></g><g id="Pot"><path class="cls-9" d="M29.11,14V4.21A2.21,2.21,0,0,1,31.31,2H47a2.21,2.21,0,0,1,2.2,2.21V14"/><path class="cls-13" d="M16,56.05H13.16A2.2,2.2,0,0,1,11,53.85V14.24A2.21,2.21,0,0,1,13.16,12h52a2.21,2.21,0,0,1,2.21,2.21V53.85a2.2,2.2,0,0,1-2.21,2.2H16Z"/><g id="handles"><line class="cls-10" x1="67.73" y1="23.4" x2="76.32" y2="23.4"/><line class="cls-10" x1="11" y1="23.4" x2="2" y2="23.4"/></g></g><g class="cls-14"><path class="cls-15" d="M96.64,40.28c-2.78-7.93,2.76-11.16,2.76-11.16s6.78-2.46,2.71-14"/><path class="cls-15" d="M111,40.09c-2.78-7.92,2.76-11.15,2.76-11.15s6.78-2.46,2.72-14"/><path class="cls-15" d="M124,40.09c-2.78-7.92,2.76-11.15,2.76-11.15s6.78-2.46,2.72-14"/></g></g><g id="Layer_2-2" data-name="Layer 2"><g id="Egg"><path id="egg-2" data-name="egg" class="cls-16" d="M95.37,41.41c-.29-1.24-2.9-14,11.12-15.08a8,8,0,0,1,1.69.06c6,.86,3.88,1.4,7.6,2.29,3.88.92,4.15-1,9.32,1.2s3,13.1,3,13.1-.1,1-2.77,5.26.55,3.6-4.34,8.21-14-.83-16.61-2.12c-3.93-2-5.46-2.45-6.48-5.62a8.2,8.2,0,0,1-.23-1c-.66-3.59-1.83-4.07-2.22-6.09C95.4,41.56,95.38,41.49,95.37,41.41Z"/><g id="yoke"><circle id="background" class="cls-17" cx="111.63" cy="41.14" r="6.92"/><path id="shadow" class="cls-18" d="M107.75,46.58s7.66,1.69,10.57-7.23a14.44,14.44,0,0,1,.17,2.73l-.79,2.38-1,1.33-1.56,1.28-2.47.9S109.6,48.61,107.75,46.58Z"/><path id="highlight_long" data-name="highlight long" class="cls-19" d="M106.51,41.9s0-4.89,4.27-5.26"/><ellipse id="highlight_circle" data-name="highlight circle" class="cls-20" cx="112.59" cy="36.62" rx="0.33" ry="0.34"/><circle id="background-2" data-name="background" class="cls-21" cx="111.63" cy="41.14" r="6.92"/></g></g><path id="Pan" class="cls-22" d="M139.87,50c-.19,3-1.58,7.28-8.15,7.28H90.92c-6.57,0-8-4.32-8.14-7.28a2.55,2.55,0,0,1,2.53-2.72h52A2.55,2.55,0,0,1,139.87,50Zm0,0,33-5.72Z"/></g></g></svg>